<svg width="65" height="65" viewBox="0 0 65 65" fill="none" xmlns="http://www.w3.org/2000/svg">
<path d="M38.5938 4.0625C36.9776 4.0625 35.4276 4.70452 34.2848 5.84732C33.142 6.99012 32.5 8.54009 32.5 10.1562V18.2812C32.5002 19.5413 32.8909 20.7702 33.6185 21.799C34.346 22.8277 35.3746 23.6056 36.5625 24.0256V28.4375C36.5626 28.8235 36.6727 29.2014 36.8799 29.5271C37.0871 29.8527 37.3828 30.1126 37.7323 30.2763C38.0818 30.44 38.4708 30.5007 38.8536 30.4513C39.2364 30.4019 39.5972 30.2445 39.8937 29.9975L46.6375 24.375H54.8438C56.4599 24.375 58.0099 23.733 59.1527 22.5902C60.2955 21.4474 60.9375 19.8974 60.9375 18.2812V10.1562C60.9375 8.54009 60.2955 6.99012 59.1527 5.84732C58.0099 4.70452 56.4599 4.0625 54.8438 4.0625H38.5938ZM36.5625 10.1562C36.5625 9.61753 36.7765 9.10087 37.1574 8.71994C37.5384 8.33901 38.055 8.125 38.5938 8.125H54.8438C55.3825 8.125 55.8991 8.33901 56.2801 8.71994C56.661 9.10087 56.875 9.61753 56.875 10.1562V18.2812C56.875 18.82 56.661 19.3366 56.2801 19.7176C55.8991 20.0985 55.3825 20.3125 54.8438 20.3125H45.9062C45.4311 20.3127 44.9711 20.4795 44.6062 20.7838L40.625 24.0988V22.3438C40.625 21.805 40.411 21.2884 40.0301 20.9074C39.6491 20.5265 39.1325 20.3125 38.5938 20.3125C38.055 20.3125 37.5384 20.0985 37.1574 19.7176C36.7765 19.3366 36.5625 18.82 36.5625 18.2812V10.1562ZM12.1875 24.375C12.1875 22.2201 13.0435 20.1535 14.5673 18.6298C16.091 17.106 18.1576 16.25 20.3125 16.25C22.4674 16.25 24.534 17.106 26.0577 18.6298C27.5815 20.1535 28.4375 22.2201 28.4375 24.375C28.4375 26.5299 27.5815 28.5965 26.0577 30.1202C24.534 31.644 22.4674 32.5 20.3125 32.5C18.1576 32.5 16.091 31.644 14.5673 30.1202C13.0435 28.5965 12.1875 26.5299 12.1875 24.375ZM20.3125 20.3125C19.2351 20.3125 18.2017 20.7405 17.4399 21.5024C16.678 22.2642 16.25 23.2976 16.25 24.375C16.25 25.4524 16.678 26.4858 17.4399 27.2476C18.2017 28.0095 19.2351 28.4375 20.3125 28.4375C21.3899 28.4375 22.4233 28.0095 23.1851 27.2476C23.947 26.4858 24.375 25.4524 24.375 24.375C24.375 23.2976 23.947 22.2642 23.1851 21.5024C22.4233 20.7405 21.3899 20.3125 20.3125 20.3125ZM10.1562 36.5625H30.4688C32.0849 36.5625 33.6349 37.2045 34.7777 38.3473C35.9205 39.4901 36.5625 41.0401 36.5625 42.6562C36.5625 47.19 34.6978 50.8219 31.6388 53.2797C28.6284 55.6969 24.5903 56.875 20.3125 56.875C16.0347 56.875 11.9966 55.6969 8.98625 53.2797C5.93125 50.8219 4.0625 47.19 4.0625 42.6562C4.0625 41.0401 4.70452 39.4901 5.84732 38.3473C6.99012 37.2045 8.54009 36.5625 10.1562 36.5625ZM30.4688 40.625H10.1562C9.61753 40.625 9.10087 40.839 8.71994 41.2199C8.33901 41.6009 8.125 42.1175 8.125 42.6562C8.125 45.9753 9.44531 48.4372 11.5294 50.1109C13.6663 51.8253 16.7375 52.8125 20.3125 52.8125C23.8875 52.8125 26.9587 51.8253 29.0956 50.1109C31.1797 48.4372 32.5 45.9753 32.5 42.6562C32.5 42.1175 32.286 41.6009 31.9051 41.2199C31.5241 40.839 31.0075 40.625 30.4688 40.625Z" fill="#FB2C36"/>
</svg>
