<svg width="33" height="34" viewBox="0 0 33 34" fill="current" stroke="current" xmlns="http://www.w3.org/2000/svg">
<path d="M3.68903 29.8333H10.0534V15.1667H3.68903V29.8333ZM13.2356 29.8333H19.6V4.16667H13.2356V29.8333ZM22.7822 29.8333H29.1466V18.8333H22.7822V29.8333ZM0.506836 29.8333V15.1667C0.506836 14.1583 0.818691 13.2954 1.4424 12.578C2.06611 11.8606 2.81499 11.5012 3.68903 11.5H10.0534V4.16667C10.0534 3.15833 10.3653 2.29544 10.989 1.578C11.6127 0.860556 12.3616 0.501222 13.2356 0.5H19.6C20.4751 0.5 21.2245 0.859333 21.8482 1.578C22.4719 2.29667 22.7832 3.15956 22.7822 4.16667V15.1667H29.1466C30.0217 15.1667 30.7711 15.526 31.3948 16.2447C32.0185 16.9633 32.3298 17.8262 32.3288 18.8333V29.8333C32.3288 30.8417 32.0174 31.7052 31.3948 32.4238C30.7721 33.1425 30.0227 33.5012 29.1466 33.5H3.68903C2.81392 33.5 2.06505 33.1413 1.4424 32.4238C0.819752 31.7064 0.507897 30.8429 0.506836 29.8333Z" fill="current"/>
</svg>
