<svg width="33" height="34" viewBox="0 0 33 34" fill="current" xmlns="http://www.w3.org/2000/svg">
<path fill-rule="evenodd" clip-rule="evenodd" d="M16.5823 4.95946C14.9199 4.95946 13.5722 6.35706 13.5722 8.08108C13.5722 9.8051 14.9199 11.2027 16.5823 11.2027C18.2448 11.2027 19.5925 9.8051 19.5925 8.08108C19.5925 6.35706 18.2448 4.95946 16.5823 4.95946ZM9.27191 8.08108C9.27191 3.89417 12.5449 0.5 16.5823 0.5C20.6198 0.5 23.8928 3.89417 23.8928 8.08108C23.8928 12.268 20.6198 15.6622 16.5823 15.6622C12.5449 15.6622 9.27191 12.268 9.27191 8.08108ZM9.70193 22.7973C8.44738 22.7973 7.24421 23.3141 6.35711 24.2341C5.47001 25.154 4.97165 26.4017 4.97165 27.7027C4.97165 28.0575 5.10756 28.3978 5.3495 28.6487C5.59144 28.8996 5.91958 29.0405 6.26172 29.0405H26.903C27.2451 29.0405 27.5733 28.8996 27.8152 28.6487C28.0571 28.3978 28.193 28.0575 28.193 27.7027C28.193 26.4017 27.6947 25.154 26.8076 24.2341C25.9205 23.3141 24.7173 22.7973 23.4628 22.7973H9.70193ZM3.31637 21.0807C5.00993 19.3245 7.30688 18.3378 9.70193 18.3378H23.4628C25.8578 18.3378 28.1548 19.3245 29.8483 21.0807C31.5419 22.837 32.4933 25.219 32.4933 27.7027C32.4933 29.2402 31.9043 30.7148 30.8559 31.802C29.8075 32.8892 28.3856 33.5 26.903 33.5H6.26172C4.77907 33.5 3.35715 32.8892 2.30876 31.802C1.26037 30.7148 0.671387 29.2402 0.671387 27.7027C0.671387 25.219 1.62282 22.837 3.31637 21.0807Z" fill="current"/>
</svg>
