<svg width="34" height="34" viewBox="0 0 34 34" fill="none" xmlns="http://www.w3.org/2000/svg">
<path fill-rule="evenodd" clip-rule="evenodd" d="M9.6714 1.57394C10.2941 0.88631 11.1387 0.5 12.0194 0.5H21.981C22.8617 0.5 23.7063 0.88631 24.329 1.57394C24.9517 2.26157 25.3016 3.19421 25.3016 4.16667C25.3016 4.6529 25.4765 5.11921 25.7879 5.46303C26.0992 5.80685 26.5215 6 26.9618 6H28.6221C29.9431 6 31.21 6.57946 32.1441 7.61091C33.0782 8.64236 33.6029 10.0413 33.6029 11.5V28C33.6029 29.4587 33.0782 30.8576 32.1441 31.8891C31.21 32.9205 29.9431 33.5 28.6221 33.5H5.37828C4.05729 33.5 2.79039 32.9205 1.85631 31.8891C0.922225 30.8576 0.397461 29.4587 0.397461 28V11.5C0.397461 10.0413 0.922224 8.64236 1.85631 7.61091C2.7904 6.57946 4.05729 6 5.37828 6H7.03856C7.47889 6 7.90119 5.80685 8.21255 5.46303C8.52391 5.11921 8.69883 4.6529 8.69883 4.16667C8.69883 3.19421 9.04867 2.26157 9.6714 1.57394ZM21.981 4.16667L12.0194 4.16667C12.0194 5.62536 11.4946 7.0243 10.5605 8.05575C9.62644 9.0872 8.35955 9.66667 7.03856 9.66667H5.37828C4.93795 9.66667 4.51565 9.85982 4.20429 10.2036C3.89293 10.5475 3.71801 11.0138 3.71801 11.5V28C3.71801 28.4862 3.89293 28.9525 4.20429 29.2964C4.51565 29.6402 4.93795 29.8333 5.37828 29.8333H28.6221C29.0624 29.8333 29.4847 29.6402 29.7961 29.2964C30.1075 28.9525 30.2824 28.4862 30.2824 28V11.5C30.2824 11.0138 30.1075 10.5475 29.7961 10.2036C29.4847 9.85982 29.0625 9.66667 28.6221 9.66667H26.9618C25.6408 9.66667 24.374 9.0872 23.4399 8.05575C22.5058 7.0243 21.981 5.62536 21.981 4.16667ZM12.3042 13.6479C13.5497 12.2726 15.2389 11.5 17.0002 11.5C18.7615 11.5 20.4507 12.2726 21.6962 13.6479C22.9416 15.0232 23.6413 16.8884 23.6413 18.8333C23.6413 20.7783 22.9416 22.6435 21.6962 24.0188C20.4507 25.3941 18.7615 26.1667 17.0002 26.1667C15.2389 26.1667 13.5497 25.3941 12.3042 24.0188C11.0588 22.6435 10.3591 20.7783 10.3591 18.8333C10.3591 16.8884 11.0588 15.0232 12.3042 13.6479ZM17.0002 15.1667C16.1195 15.1667 15.2749 15.553 14.6522 16.2406C14.0295 16.9282 13.6797 17.8609 13.6797 18.8333C13.6797 19.8058 14.0295 20.7384 14.6522 21.4261C15.2749 22.1137 16.1195 22.5 17.0002 22.5C17.8809 22.5 18.7255 22.1137 19.3482 21.4261C19.9709 20.7384 20.3207 19.8058 20.3207 18.8333C20.3207 17.8609 19.9709 16.9282 19.3482 16.2406C18.7255 15.553 17.8809 15.1667 17.0002 15.1667Z" fill="#FB2C36"/>
</svg>
